# xmcd
#
# Track frame offsets:
#	182
#	16312
#	34807
#	50382
#	70182
#	85337
#	100515
#	116817
#	140820
#	157570
#	176645
#
# Disc length: 2588 seconds
#
# Revision: 2
# Processed by: cddbd v1.4PL0 Copyright (c) Steve Scherf et al.
# Submitted via: audiograbber 1.82.02
#
DISCID=880a1a0b
DTITLE=Keith Stegall - Passages
DYEAR=1996
DGENRE=Country
TTITLE0=Roll The Dice
TTITLE1=Baltimore Street
TTITLE2=1969
TTITLE3=Hard Luck Cafe
TTITLE4=Every Time It Rains (Lord Don't It Pour)
TTITLE5=Guilty Rose
TTITLE6=Fifty Fifty
TTITLE7=Middle Aged Man
TTITLE8=Boo Hoo
TTITLE9=My Life
TTITLE10=In A Perfect World
EXTD=
EXTT0=
EXTT1=
EXTT2=
EXTT3=
EXTT4=
EXTT5=
EXTT6=
EXTT7=
EXTT8=
EXTT9=
EXTT10=
PLAYORDER=
